<?xml version="1.0" encoding="utf-8"?>
<!-- Generator: Adobe Illustrator 23.1.0, SVG Export Plug-In . SVG Version: 6.00 Build 0)  -->
<svg version="1.1" xmlns="http://www.w3.org/2000/svg" xmlns:xlink="http://www.w3.org/1999/xlink" x="0px" y="0px"
	 viewBox="0 0 512 512" style="enable-background:new 0 0 512 512;" xml:space="preserve">
<style type="text/css">
	.st0{fill:url(#SVGID_1_);}
	.st1{fill:#FFFFFF;}
	.st2{fill:#F5D2A2;}
	.st3{fill:none;}
	.st4{fill:url(#SVGID_2_);}
	.st5{fill:url(#SVGID_3_);}
</style>
<g id="圖層_1">
</g>
<g id="圖層_2">
	<radialGradient id="SVGID_1_" cx="251.6667" cy="-1.6667" r="328.5368" gradientUnits="userSpaceOnUse">
		<stop  offset="0" style="stop-color:#FFFFFF"/>
		<stop  offset="1" style="stop-color:#ECA22A"/>
	</radialGradient>
	<path class="st0" d="M441.33,512H70.67C31.64,512,0,480.36,0,441.33L0,70.67C0,31.64,31.64,0,70.67,0l370.67,0
		C480.36,0,512,31.64,512,70.67v370.67C512,480.36,480.36,512,441.33,512z"/>
	<g>
		<path class="st1" d="M122.35,340.58c-7.87,5.11-12.25,10.77-12.25,16.71c0,22.98,65.31,41.61,145.89,41.61
			s145.91-18.63,145.91-41.61c0-5.94-4.38-11.6-12.25-16.71c16.18,7.11,25.58,15.59,25.58,24.69c0,25.08-71.29,45.41-159.23,45.41
			c-87.92,0-159.21-20.33-159.21-45.41C96.78,356.17,106.18,347.69,122.35,340.58z"/>
		<path class="st2" d="M362.95,296.91v17.47c59.49,10.32,99.24,28.97,99.24,50.28c0,8.4-6.19,16.39-17.31,23.61
			c22.86-10.05,36.14-22.03,36.14-34.9C481.02,328.98,433.26,307.76,362.95,296.91z"/>
		<path class="st2" d="M49.81,364.67c0-21.31,39.75-39.96,99.24-50.28v-17.48c-70.31,10.85-118.07,32.07-118.07,56.47
			c0,12.86,13.28,24.85,36.14,34.9C56,381.06,49.81,373.07,49.81,364.67z"/>
		<path class="st3" d="M258.39,133.72h-4.78c-11.2,0-21.74,4.36-29.66,12.29c-7.92,7.92-12.29,18.46-12.29,29.66v18.21h88.68v-18.21
			c0-11.21-4.36-21.74-12.29-29.66C280.13,138.08,269.6,133.72,258.39,133.72z"/>
		<linearGradient id="SVGID_2_" gradientUnits="userSpaceOnUse" x1="237.415" y1="370.2213" x2="305.6814" y2="260.1416">
			<stop  offset="0" style="stop-color:#F5D2A2"/>
			<stop  offset="1" style="stop-color:#FFFFFF"/>
		</linearGradient>
		<path class="st4" d="M323.14,287.92c-12.22,8.89-24.74,17.48-38.27,24.21c-6.03,3-12.2,5.6-18.47,7.85
			c-0.5,5.31-4.96,9.47-10.4,9.47c-3.28,0-6.2-1.51-8.11-3.87c-28.27,7.09-58.21,8.37-88.03,7.95v8.09c0,7.13,3.96,13.34,9.8,16.55
			c16.54,11.88,49.44,20.19,86.35,20.19c36.96,0,69.89-8.32,86.41-20.23c5.8-3.22,9.73-9.41,9.73-16.51v-78.45
			C343.65,272.56,333.42,280.43,323.14,287.92z"/>
		<path class="st1" d="M333.26,193.88h-0.53v-18.21c0-41.06-33.29-74.35-74.35-74.35h-4.78c-41.06,0-74.35,33.29-74.35,74.35v18.21
			h-0.53c-10.43,0-18.88,8.45-18.88,18.88v120.75c29.82,0.42,59.76-0.86,88.03-7.95c-1.46-1.8-2.34-4.09-2.34-6.58v-27.07
			c-4.61-3.27-7.61-8.65-7.61-14.73c0-9.98,8.09-18.06,18.06-18.06s18.06,8.09,18.06,18.06c0,6.08-3.01,11.46-7.61,14.73v27.07
			c0,0.33-0.02,0.66-0.05,0.98c6.27-2.25,12.43-4.85,18.47-7.85c13.53-6.73,26.05-15.31,38.27-24.21
			c10.29-7.49,20.52-15.36,29.01-24.75v-50.4C352.14,202.34,343.69,193.88,333.26,193.88z M300.34,193.88h-88.68v-18.21
			c0-11.21,4.36-21.74,12.29-29.66c7.92-7.92,18.46-12.29,29.66-12.29h4.78c11.21,0,21.74,4.36,29.66,12.29
			c7.92,7.92,12.29,18.46,12.29,29.66V193.88z"/>
		<linearGradient id="SVGID_3_" gradientUnits="userSpaceOnUse" x1="198.572" y1="154.9208" x2="313.4281" y2="154.9208">
			<stop  offset="0" style="stop-color:#F5D2A2"/>
			<stop  offset="1" style="stop-color:#FFFFFF"/>
		</linearGradient>
		<path class="st5" d="M259.09,115.96h-6.19c-14.51,0-28.16,5.65-38.42,15.92c-10.26,10.26-15.91,23.91-15.91,38.42v23.59h13.09
			v-18.21c0-11.21,4.36-21.74,12.29-29.66c7.92-7.92,18.46-12.29,29.66-12.29h4.78c11.21,0,21.74,4.36,29.66,12.29
			c7.92,7.92,12.29,18.46,12.29,29.66v18.21h13.09v-23.59c0-14.51-5.65-28.16-15.91-38.42
			C287.25,121.61,273.61,115.96,259.09,115.96z"/>
	</g>
</g>
</svg>
