<?xml version="1.0" encoding="utf-8"?>
<!-- Generator: Adobe Illustrator 23.1.0, SVG Export Plug-In . SVG Version: 6.00 Build 0)  -->
<svg version="1.1" xmlns="http://www.w3.org/2000/svg" xmlns:xlink="http://www.w3.org/1999/xlink" x="0px" y="0px"
	 viewBox="0 0 512 512" style="enable-background:new 0 0 512 512;" xml:space="preserve">
<style type="text/css">
	.st0{fill:#DBB992;}
	.st1{fill:#F4F3EE;}
	.st2{fill:#DF8816;}
	.st3{fill:none;}
	.st4{fill:#FFFFFF;}
</style>
<g id="圖層_1">
</g>
<g id="圖層_2">
	<rect x="0" y="0" class="st0" width="512" height="512"/>
	<path class="st1" d="M133.28,333.66c-7.23,4.7-11.25,9.89-11.25,15.34c0,21.1,59.97,38.21,133.96,38.21S389.97,370.11,389.97,349
		c0-5.46-4.02-10.65-11.25-15.34c14.85,6.53,23.48,14.32,23.48,22.67c0,23.03-65.46,41.69-146.21,41.69
		c-80.73,0-146.19-18.67-146.19-41.69C109.8,347.98,118.43,340.19,133.28,333.66z"/>
	<path class="st2" d="M378.79,298.03v16.66c40.72,9.9,66.54,24.64,66.54,41.1c0,7.71-5.68,15.05-15.9,21.68
		c20.99-9.23,33.19-20.23,33.19-32.04C462.62,325.99,429.64,308.76,378.79,298.03z"/>
	<path class="st3" d="M258.19,143.72h-4.39c-10.29,0-19.96,4.01-27.24,11.28c-7.27,7.27-11.28,16.95-11.28,27.24v16.72h81.43v-16.72
		c0-10.29-4.01-19.96-11.28-27.24C278.16,147.72,268.48,143.72,258.19,143.72z"/>
	<g>
		<path class="st1" d="M342.09,162.8h-0.59v-20.29c0-45.75-37.09-82.84-82.84-82.84h-5.32c-45.75,0-82.84,37.09-82.84,82.84v20.29
			h-0.59c-11.62,0-21.04,9.42-21.04,21.04v134.55v9.02c0,7.95,4.41,14.86,10.92,18.44c18.43,13.24,55.09,22.49,96.21,22.49
			c41.18,0,77.88-9.27,96.29-22.54c6.46-3.59,10.84-10.48,10.84-18.4V240v-56.15C363.13,172.22,353.71,162.8,342.09,162.8z
			 M305.4,162.8H206.6v-20.29c0-12.49,4.86-24.22,13.69-33.05c8.83-8.83,20.57-13.69,33.05-13.69h5.32
			c12.49,0,24.22,4.86,33.05,13.69c8.83,8.83,13.69,20.57,13.69,33.05V162.8z"/>
		<path class="st2" d="M259.45,75.97h-6.9c-16.17,0-31.38,6.3-42.81,17.73c-11.43,11.43-17.73,26.64-17.73,42.81v26.29h14.58v-20.29
			c0-12.49,4.86-24.22,13.69-33.05c8.83-8.83,20.57-13.69,33.05-13.69h5.32c12.49,0,24.22,4.86,33.05,13.69
			c8.83,8.83,13.69,20.57,13.69,33.05v20.29h14.58v-26.29c0-16.17-6.3-31.38-17.73-42.81C290.82,82.27,275.62,75.97,259.45,75.97z"
			/>
		<circle class="st2" cx="256" cy="262.27" r="22.21"/>
		<path class="st2" d="M257.76,328.6h-3.52c-2.93,0-5.3-2.37-5.3-5.3v-58.99c0-2.93,2.37-5.3,5.3-5.3h3.52c2.93,0,5.3,2.37,5.3,5.3
			v58.99C263.06,326.23,260.69,328.6,257.76,328.6z"/>
	</g>
	<path class="st3" d="M165.04,439.72c0.02,0,0.04,0,0.07,0.01c-13.71-1.82-26.81-4.03-39.17-6.6
		C137.31,435.92,150.27,438.19,165.04,439.72z"/>
	<path class="st4" d="M181.68,441.69c-5.32-0.71-10.84-1.37-16.57-1.97C170.54,440.45,176.07,441.1,181.68,441.69z"/>
	<path class="st4" d="M259.29,424.31c-1.1,0-2.19-0.01-3.29-0.01c-1.1,0.01-2.19,0.01-3.29,0.01c-94.87,0-176.01-19.51-209.15-47.12
		c4.85,14.17,21.58,41.79,79.11,55.93c12.36,2.57,25.46,4.79,39.17,6.6c5.73,0.6,11.25,1.25,16.57,1.97
		c23.44,2.47,48.4,3.81,74.3,3.81c1.1,0,2.19-0.01,3.29-0.01c1.1,0,2.19,0.01,3.29,0.01c25.9,0,50.86-1.34,74.3-3.81
		c5.32-0.71,10.84-1.37,16.57-1.97c13.71-1.82,26.81-4.03,39.17-6.6c57.53-14.14,74.25-41.77,79.11-55.93
		C435.3,404.8,354.16,424.31,259.29,424.31z"/>
	<path class="st2" d="M133.21,298.03v16.66c-40.72,9.9-66.54,24.64-66.54,41.1c0,7.71,5.68,15.05,15.9,21.68
		c-20.99-9.23-33.19-20.23-33.19-32.04C49.38,325.99,82.36,308.76,133.21,298.03z"/>
</g>
</svg>
