<?xml version="1.0" encoding="utf-8"?>
<!-- Generator: Adobe Illustrator 23.1.0, SVG Export Plug-In . SVG Version: 6.00 Build 0)  -->
<svg version="1.1" xmlns="http://www.w3.org/2000/svg" xmlns:xlink="http://www.w3.org/1999/xlink" x="0px" y="0px"
	 viewBox="0 0 512 512" style="enable-background:new 0 0 512 512;" xml:space="preserve">
<style type="text/css">
	.st0{fill:#E59A2D;}
	.st1{fill:#FFFFFF;}
</style>
<g id="圖層_1">
</g>
<g id="圖層_2">
	<rect x="0" y="0" class="st0" width="512" height="512"/>
	<path class="st1" d="M346.34,212.71h-0.61v-21.3c0-48.01-38.92-86.93-86.93-86.93h-5.59c-48.01,0-86.93,38.92-86.93,86.93v21.3
		h-0.61c-12.19,0-22.08,9.88-22.08,22.08v150.65c0,12.19,9.88,22.08,22.08,22.08h180.67c12.19,0,22.08-9.88,22.08-22.08V234.79
		C368.41,222.59,358.53,212.71,346.34,212.71z M218.52,156.73c9.26-9.27,21.58-14.37,34.68-14.37h5.59c13.1,0,25.42,5.1,34.68,14.37
		c9.26,9.26,14.37,21.58,14.37,34.68v21.3H204.16v-21.3C204.16,178.31,209.26,166,218.52,156.73z M268.22,327.33v31.65
		c0,6.75-5.47,12.22-12.22,12.22s-12.22-5.47-12.22-12.22v-31.65c-5.39-3.83-8.9-10.11-8.9-17.22c0-11.67,9.46-21.12,21.12-21.12
		c11.66,0,21.12,9.46,21.12,21.12C277.12,317.22,273.6,323.51,268.22,327.33z"/>
</g>
</svg>
